<svg xmlns="http://www.w3.org/2000/svg" viewBox="0 0 1200 675" width="1200" height="675">
  <defs>
    <linearGradient id="bg" x1="0%" y1="0%" x2="100%" y2="100%">
      <stop offset="0%" stop-color="#EFF3F8"/>
      <stop offset="50%" stop-color="#FAFAF9"/>
      <stop offset="100%" stop-color="#F7F0F0"/>
    </linearGradient>
    <radialGradient id="glow" cx="72%" cy="30%" r="55%">
      <stop offset="0%" stop-color="#C4827A" stop-opacity="0.14"/>
      <stop offset="65%" stop-color="#C4827A" stop-opacity="0"/>
    </radialGradient>
  </defs>
  <rect width="1200" height="675" fill="url(#bg)"/>
  <rect width="1200" height="675" fill="url(#glow)"/>

  <!-- ícono: gota + ondas suaves -->
  <g transform="translate(600,300)" fill="none" stroke="#1D2E4A" stroke-width="2.2" stroke-linecap="round" stroke-linejoin="round">
    <path d="M0,-72 C34,-30 58,4 58,32 A58,58 0 1 1 -58,32 C-58,4 -34,-30 0,-72 Z"/>
    <path d="M-24,26 A24,24 0 0 0 24,26" stroke="#C4827A"/>
  </g>
  <g stroke="#C4827A" stroke-width="1.4" stroke-linecap="round" opacity="0.55">
    <path d="M470,420 C520,405 560,405 600,420 C640,435 680,435 730,420" fill="none"/>
    <path d="M486,452 C526,440 560,440 600,452 C640,464 674,464 714,452" fill="none"/>
  </g>

  <!-- línea dorada -->
  <rect x="574" y="500" width="52" height="1.5" fill="#B8966C"/>
</svg>
